<?xml version="1.0" standalone="no"?>
<!DOCTYPE svg PUBLIC "-//W3C//DTD SVG 20010904//EN"
 "http://www.w3.org/TR/2001/REC-SVG-20010904/DTD/svg10.dtd">
<svg version="1.0" xmlns="http://www.w3.org/2000/svg"
 width="260.000000pt" height="260.000000pt" viewBox="0 0 260.000000 260.000000"
 preserveAspectRatio="xMidYMid meet">
<metadata>
Created by potrace 1.14, written by Peter Selinger 2001-2017
</metadata>
<g transform="translate(0.000000,260.000000) scale(0.100000,-0.100000)"
fill="#000000" stroke="none">
<path d="M2390 2583 c-25 -17 -44 -36 -91 -91 -15 -17 -29 -29 -31 -27 -6 7
-58 -52 -58 -65 0 -5 -4 -10 -10 -10 -5 0 -10 -4 -10 -10 0 -13 -37 -50 -50
-50 -5 0 -13 -6 -17 -12 -4 -7 -17 -18 -28 -24 -11 -6 -18 -13 -15 -15 8 -7
-60 -89 -73 -89 -12 0 -68 -55 -97 -95 -8 -11 -35 -35 -59 -53 -25 -17 -42
-32 -38 -32 9 0 -21 -37 -56 -69 -16 -14 -45 -43 -65 -64 -47 -49 -80 -82
-129 -129 -21 -20 -53 -52 -70 -70 -18 -18 -45 -45 -60 -59 -16 -14 -42 -41
-58 -60 -17 -19 -46 -48 -65 -65 -38 -33 -70 -70 -70 -82 -1 -4 -12 -16 -26
-27 -13 -11 -39 -32 -56 -47 -31 -27 -67 -36 -82 -21 -4 5 -12 9 -17 9 -5 1
-13 2 -18 3 -18 2 -111 104 -111 121 0 6 -7 10 -15 10 -8 0 -15 5 -15 12 0 6
-3 8 -6 5 -7 -6 -87 73 -114 111 -8 12 -18 22 -21 22 -9 0 -69 59 -69 68 0 4
-36 40 -80 81 -44 41 -78 76 -76 79 5 5 -19 32 -28 32 -7 0 -44 30 -60 48 -30
37 -94 100 -117 117 -14 11 -40 46 -59 77 -19 32 -43 59 -55 62 -11 3 -42 26
-69 52 -27 25 -54 47 -60 48 -6 1 -16 5 -22 9 -7 4 -24 6 -38 5 l-26 -2 2
-1141 3 -1140 1262 -2 1262 -3 26 24 c15 14 26 27 25 30 0 4 2 23 6 44 12 60
11 882 -1 882 -7 0 -7 3 0 8 12 8 14 72 2 72 -4 0 -3 8 2 19 6 10 8 21 5 24
-6 5 -6 985 -1 1105 1 28 -2 52 -7 52 -5 0 -3 6 3 14 8 10 9 16 1 21 -7 4 -7
12 0 26 8 14 7 19 -1 19 -8 0 -8 4 -2 13 11 14 10 130 -2 172 -5 17 -9 34 -9
38 -4 37 -140 52 -186 20z"/>
</g>
</svg>
